<svg xmlns="http://www.w3.org/2000/svg" xmlns:xlink="http://www.w3.org/1999/xlink" version="1.1" x="0px" y="0px" viewBox="0 0 100 125" enable-background="new 0 0 100 100" xml:space="preserve"><path d="M19.6,19.6c-16.2,16.2-16.8,42-1.8,58.8l0.4,0.4c-1.6,3.5-4.4,7.8-8.8,10c-1.5,0.7-1.1,2.9,0.5,3.2c4.8,0.8,11.8-0.1,18.3-5  l0.1,0.1c16.5,9.7,38,7.5,52.1-6.7c16.8-16.8,16.8-44,0-60.8C63.6,2.8,36.4,2.8,19.6,19.6z M50,82.8c-18.1,0-32.8-14.7-32.8-32.8  c0-18.1,14.7-32.8,32.8-32.8c18.1,0,32.8,14.7,32.8,32.8C82.8,68.1,68.1,82.8,50,82.8z M54.6,50c0,2.6-2.1,4.6-4.6,4.6  c-2.6,0-4.6-2.1-4.6-4.6c0-2.6,2.1-4.6,4.6-4.6C52.6,45.4,54.6,47.4,54.6,50z M71,50c0,2.6-2.1,4.6-4.6,4.6c-2.6,0-4.6-2.1-4.6-4.6  c0-2.6,2.1-4.6,4.6-4.6C68.9,45.4,71,47.4,71,50z M38.3,50c0,2.6-2.1,4.6-4.6,4.6c-2.6,0-4.6-2.1-4.6-4.6c0-2.6,2.1-4.6,4.6-4.6  C36.2,45.4,38.3,47.4,38.3,50z"/><text x="0" y="115" fill="#000000" font-size="5px" font-weight="bold" font-family="'Helvetica Neue', Helvetica, Arial-Unicode, Arial, Sans-serif">Created by Gregor Cresnar</text><text x="0" y="120" fill="#000000" font-size="5px" font-weight="bold" font-family="'Helvetica Neue', Helvetica, Arial-Unicode, Arial, Sans-serif">from the Noun Project</text></svg>