<?xml version="1.0" encoding="UTF-8" standalone="no"?>
<svg
   xmlns:dc="http://purl.org/dc/elements/1.1/"
   xmlns:cc="http://creativecommons.org/ns#"
   xmlns:rdf="http://www.w3.org/1999/02/22-rdf-syntax-ns#"
   xmlns:svg="http://www.w3.org/2000/svg"
   xmlns="http://www.w3.org/2000/svg"
   xmlns:sodipodi="http://sodipodi.sourceforge.net/DTD/sodipodi-0.dtd"
   xmlns:inkscape="http://www.inkscape.org/namespaces/inkscape"
   inkscape:version="1.0 (4035a4f, 2020-05-01)"
   height="16"
   width="16"
   sodipodi:docname="reader-icon-light.svg"
   id="svg853"
   xml:space="preserve"
   enable-background="new 0 0 100 100"
   viewBox="0 0 16 16"
   y="0px"
   x="0px"
   version="1.1"><metadata
     id="metadata859"><rdf:RDF><cc:Work
         rdf:about=""><dc:format>image/svg+xml</dc:format><dc:type
           rdf:resource="http://purl.org/dc/dcmitype/StillImage" /><dc:title /></cc:Work></rdf:RDF></metadata><defs
     id="defs857" /><sodipodi:namedview
     inkscape:current-layer="svg853"
     inkscape:window-maximized="0"
     inkscape:window-y="23"
     inkscape:window-x="166"
     inkscape:cy="-2.115256"
     inkscape:cx="13.68169"
     inkscape:zoom="10.704"
     fit-margin-bottom="0"
     fit-margin-right="0"
     fit-margin-left="0"
     fit-margin-top="0"
     showgrid="false"
     id="namedview855"
     inkscape:window-height="831"
     inkscape:window-width="1196"
     inkscape:pageshadow="2"
     inkscape:pageopacity="0"
     guidetolerance="10"
     gridtolerance="10"
     objecttolerance="10"
     borderopacity="1"
     bordercolor="#666666"
     pagecolor="#ffffff"
     inkscape:document-rotation="0" /><path
     style="stroke-width:0.162748;fill:#0c0c0d;fill-opacity:1"
     id="path847"
     d="M 3.0534242,3.0506106 C 0.4169289,5.687106 0.31928092,9.8859691 2.7604804,12.620113 l 0.065098,0.06509 c -0.2603947,0.569613 -0.7160853,1.269424 -1.4321704,1.627466 -0.24412,0.113923 -0.1790213,0.471967 0.081373,0.520789 0.7811837,0.130199 1.9204104,-0.01627 2.9782634,-0.813733 l 0.016275,0.01628 c 2.6853193,1.578641 6.1843726,1.220599 8.4791006,-1.090402 2.734143,-2.734144 2.734143,-7.1608521 0,-9.8949954 -2.734144,-2.73414347 -7.1608529,-2.73414347 -9.8949964,0 z M 8.0009219,13.336198 c -2.9457141,0 -5.3380895,-2.392376 -5.3380895,-5.33809 0,-2.9457138 2.3923754,-5.3380892 5.3380895,-5.3380892 2.9457141,0 5.3380901,2.3923754 5.3380901,5.3380892 0,2.945714 -2.392376,5.33809 -5.3380901,5.33809 z m 0.7486345,-5.33809 c 0,0.4231413 -0.3417678,0.7486346 -0.7486345,0.7486346 -0.4231413,0 -0.7486344,-0.3417679 -0.7486344,-0.7486346 0,-0.4231412 0.3417678,-0.7486344 0.7486344,-0.7486344 0.4231412,0 0.7486345,0.3254932 0.7486345,0.7486344 z m 2.6690446,0 c 0,0.4231413 -0.341767,0.7486346 -0.748634,0.7486346 -0.423141,0 -0.7486349,-0.3417679 -0.7486349,-0.7486346 0,-0.4231412 0.3417679,-0.7486344 0.7486349,-0.7486344 0.406867,0 0.748634,0.3254932 0.748634,0.7486344 z m -5.3218148,0 c 0,0.4231413 -0.3417678,0.7486346 -0.7486344,0.7486346 -0.4231411,0 -0.7486344,-0.3417679 -0.7486344,-0.7486346 0,-0.4231412 0.3417678,-0.7486344 0.7486344,-0.7486344 0.4068666,0 0.7486344,0.3254932 0.7486344,0.7486344 z" /></svg>
